<svg version="1.1" xmlns="http://www.w3.org/2000/svg" xmlns:xlink="http://www.w3.org/1999/xlink" width="100.63367" height="98.95651" viewBox="0,0,100.63367,98.95651"><g transform="translate(-189.68318,-130.52175)"><g data-paper-data="{&quot;isPaintingLayer&quot;:true}" fill="#333333" fill-rule="evenodd" stroke="none" stroke-width="1" stroke-linecap="butt" stroke-linejoin="miter" stroke-miterlimit="10" stroke-dasharray="" stroke-dashoffset="0" style="mix-blend-mode: normal"><path d="M290.3166,181.25429c0,22.42644 -14.42374,41.40919 -34.43358,48.12875c-2.50154,0.50385 -3.41854,-1.09182 -3.41854,-2.43598c0,-1.67979 0.08329,-7.13931 0.08329,-13.94298c0,-4.78744 -1.58414,-7.81139 -3.41812,-9.40747c11.25548,-1.25963 23.01152,-5.54362 23.01152,-25.03023c0,-5.54362 -1.91769,-10.07921 -5.16924,-13.60698c0.50015,-1.25992 2.25084,-6.46755 -0.50055,-13.43908c0,0 -4.25184,-1.34391 -13.8403,5.20763c-4.00196,-1.0919 -8.3375,-1.67987 -12.58933,-1.67987c-4.25225,0 -8.58778,0.58797 -12.5897,1.67987c-9.58815,-6.55154 -13.84027,-5.20763 -13.84027,-5.20763c-2.75136,6.97153 -1.00049,12.17916 -0.50023,13.43908c-3.16826,3.52777 -5.16924,8.06336 -5.16924,13.60698c0,19.4866 11.75583,23.85429 22.92811,25.03023c-1.41739,1.26005 -2.75141,3.5278 -3.16826,6.80368c-2.91815,1.34374 -10.17175,3.5278 -14.67398,-4.19988c0,0 -2.66804,-4.87154 -7.75391,-5.20759c0,0 -4.91909,0 -0.33348,3.10806c0,0 3.33501,1.51156 5.58614,7.39123c0,0 2.9181,9.07143 16.92512,6.0479c0,4.19946 0.08337,8.23113 0.08337,9.40705c0,1.34416 -0.91712,2.93982 -3.41837,2.43598c-20.01001,-6.71956 -34.43387,-25.70231 -34.43387,-48.12875c0,-28.05409 22.51126,-50.73254 50.35857,-50.73254c27.76391,0 50.35816,22.67845 50.27487,50.73254z"/></g></g></svg>