<svg version="1.1" xmlns="http://www.w3.org/2000/svg" xmlns:xlink="http://www.w3.org/1999/xlink" width="70.2505" height="100.87317" viewBox="0,0,70.2505,100.87317"><g transform="translate(-204.6151,-129.69304)"><g data-paper-data="{&quot;isPaintingLayer&quot;:true}" fill-rule="nonzero" stroke-linecap="butt" stroke-linejoin="miter" stroke-miterlimit="10" stroke-dasharray="" stroke-dashoffset="0" style="mix-blend-mode: normal"><g><path d="M272.03124,201.41785c-4.0465,11.37367 -14.78381,18.13399 -31.20673,20.24462c-0.13607,0.01729 -0.27182,0.0335 -0.40731,0.04861c-0.94143,1.05754 -2.02653,1.99251 -3.23034,2.77922c-4.15714,2.70216 -8.21768,4.07591 -12.33383,4.07591c-10.08106,0 -18.046,-8.04386 -18.046,-20.37863c0,-0.64288 0.01996,-1.39857 1.76596,-3.93285l-1.32425,0.28391l-0.32891,0.31143c-0.00398,0.07277 0.02621,-0.44435 0.04842,-0.8479c-0.17036,-0.95237 -0.25718,-1.90932 -0.25718,-2.86931v-5.245c0,-1.00022 0.08798,-1.99884 0.26309,-2.99321c0.01148,-0.50718 0.03171,-1.04491 0.06052,-1.61068c-0.27186,-1.19656 -0.41958,-2.41727 -0.41958,-3.68625c0,-0.73861 0.05325,-1.48559 0.15721,-2.25529c0.42312,-3.03367 1.56401,-5.95973 3.33382,-8.47844c-0.44879,-1.84602 -0.67682,-3.74363 -0.67682,-5.66228v-5.52676c0,-3.07682 0.70652,-6.54119 2.75474,-13.19136c1.05364,-3.51935 1.29715,-4.26625 1.75327,-5.26789c2.19895,-5.01555 5.56626,-8.39113 9.50087,-10.40955c4.35211,-2.20589 9.03811,-3.33272 13.88688,-3.33272c1.61995,0 3.20834,0.12461 4.76202,0.37166c0.5421,-0.29666 1.09729,-0.56492 1.6602,-0.80322c1.4657,-0.64056 3.01717,-1.08535 4.65227,-1.34884c4.38024,-0.76336 8.95933,0.17426 12.90991,2.61163c5.63201,3.4916 8.96369,9.65994 8.49011,18.54919c-0.07802,1.58664 -0.21009,3.66334 -0.40645,6.35991c-0.08598,0.9468 -0.18388,2.05565 -0.33047,3.7373c-0.01138,0.13065 -0.2852,3.27889 -0.41037,4.71362c0.07338,1.53297 0.03971,3.22561 -0.09509,5.25725c-0.03548,0.49075 -0.09204,0.97714 -0.16951,1.45476c0.96541,1.47028 1.76412,2.99502 2.41671,4.55508c0.73915,1.53847 1.34482,3.25038 1.85617,5.2237c0.2468,0.9298 0.40676,1.87596 0.47833,2.82191c0.5221,6.61675 0.2403,10.74019 -1.10771,14.44046z" fill="#ffab19" stroke="#ffffff" stroke-width="4"/><path d="M257.29751,188.26312c0.31232,3.94132 0.24838,6.48148 -0.18761,7.62583c-1.81431,5.21139 -7.90965,8.48302 -18.28387,9.81811c-3.50177,0.44539 -7.00143,-1.23865 -10.50322,-5.05211c0,0.57217 0.12473,2.28764 0.3763,5.14855c0.18761,2.09691 0.15563,3.81238 -0.09382,5.14639c-1.5638,1.01649 -2.81316,1.5258 -3.75121,1.5258c-1.43909,0 -2.15651,-1.42936 -2.15651,-4.29027c0,-0.50825 0.03092,-1.31775 0.09382,-2.42961c0.06181,-1.11077 0.09382,-1.88992 0.09382,-2.33531c0,-1.08043 -0.09382,-1.84225 -0.28143,-2.28764v-5.24283c0,-0.1268 0.03092,-0.26984 0.09382,-0.42914c0.06181,-0.15821 0.12473,-0.30126 0.18763,-0.42912c-0.0629,-0.88861 -0.03198,-2.25514 0.09379,-4.09848c0.12473,-1.14435 0.12473,-1.87369 0,-2.19228c-0.31341,-0.63394 -0.46797,-1.01541 -0.46797,-1.14327c0.24836,-1.7794 1.53185,-2.66909 3.84397,-2.66909c1.49984,0 2.40594,0.54077 2.71934,1.6201c0,1.01649 0.12471,2.51088 0.37522,4.47991c0.37628,2.28764 1.56276,4.57637 3.56362,6.86293c2.18741,2.60626 4.28102,3.81347 6.28295,3.62273c2.25031,-0.25251 4.50062,-0.79326 6.75092,-1.6201c3.12548,-1.14435 5.00055,-2.47836 5.6263,-4.0031c0.43599,-1.14435 0.65559,-2.3505 0.65559,-3.62273c0,-3.87524 -1.40605,-6.76755 -4.21921,-8.67374c-1.25146,-0.82576 -3.5636,-1.4933 -6.9396,-2.00263c-1.93796,-0.25251 -3.12655,-0.38147 -3.56254,-0.38147c-3.00075,0.06394 -5.79899,-0.92114 -8.39254,-2.95519c-2.59461,-2.03299 -3.89086,-4.38565 -3.89086,-7.05475v-5.52784c0,-1.20613 0.68757,-4.03452 2.06376,-8.48302c0.62361,-2.09799 0.96791,-3.20876 1.03187,-3.33664c0.56177,-1.334 1.28027,-2.2237 2.15545,-2.66909c2.12451,-1.07935 4.37482,-1.6201 6.7509,-1.6201c4.62535,0 8.03224,1.90619 10.22073,5.71855c0.18761,0.19071 0.49995,0.47683 0.93807,0.85828c0.06181,-0.88861 0.18763,-2.25514 0.37522,-4.09848c-0.0629,-0.82576 -0.1258,-1.6201 -0.18761,-2.383c0,-0.88861 0.43599,-1.49222 1.31223,-1.81083c0.24945,-0.1268 0.59377,-0.22215 1.03187,-0.28609c0.62467,-0.1268 1.29732,0.0325 2.01686,0.47572c0.71742,0.44539 1.01483,1.78048 0.89011,4.0031c-0.0629,1.39794 -0.18763,3.36808 -0.37524,5.90929c-0.18761,2.09799 -0.46797,5.30677 -0.84426,9.62846c0.12473,1.01649 0.12473,2.41552 0,4.19383c-0.31341,1.20721 -1.25146,1.81083 -2.81316,1.81083c-0.81336,0 -1.59366,-0.22215 -2.34412,-0.66646c-0.37522,-1.20613 -0.56177,-1.71654 -0.56177,-1.52582c0.12365,-1.71546 -0.21959,-4.0031 -1.03187,-6.86293c-0.68863,-1.4608 -1.64058,-3.54146 -2.86006,-6.24307c-1.21948,-2.70051 -2.82914,-4.14723 -4.82894,-4.33794c-2.50082,-0.19071 -4.12539,0.66752 -4.87584,2.57371c-0.24945,0.82684 -0.59483,2.03515 -1.03083,3.62275c-0.75046,2.35158 -1.2195,4.60779 -1.40711,6.76755c-0.0629,0.70007 -0.12578,0.98614 -0.18761,0.85828c0.18761,1.27223 0.40614,2.54232 0.65665,3.81347c0.31232,1.58868 1.07879,2.79699 2.29721,3.62167c1.21948,0.82684 3.54654,1.334 6.98543,1.52472c8.4384,0.51041 13.65748,3.49704 15.65834,8.96094c0.31128,0.50933 0.62363,1.36651 0.93701,2.57265z" fill="#ffffff" stroke="none" stroke-width="1"/></g></g></g></svg>